<svg id="Capa_1" data-name="Capa 1" xmlns="http://www.w3.org/2000/svg" viewBox="0 0 131.19 131.19"><defs><style>.cls-1{fill:#ffb100;}.cls-2{fill:#600;fill-rule:evenodd;}</style></defs><title>boton</title><rect class="cls-1" width="131.19" height="131.19"/><polygon class="cls-2" points="7.84 116.01 7.84 99.26 6 97.57 6 117.85 9.45 117.85 9.45 116.01 7.84 116.01"/><polygon class="cls-2" points="11.51 116.01 11.51 114.17 13.35 114.17 13.35 115.78 15.19 115.78 15.19 112.33 9.68 112.33 9.68 116.01 9.68 117.85 9.68 119.46 11.51 119.46 11.51 117.85 11.51 116.01"/><polygon class="cls-2" points="15.19 116.01 13.35 116.01 11.74 116.01 11.74 117.85 13.35 117.85 15.19 117.85 17.03 117.85 17.03 119.68 15.42 119.68 15.42 121.52 18.87 121.52 18.87 116.01 15.19 116.01"/><polygon class="cls-2" points="9.68 121.75 9.68 123.36 7.84 123.36 7.84 121.52 9.68 121.52 11.51 121.52 13.12 121.52 13.12 119.68 11.51 119.68 9.68 119.68 6 119.68 6 125.2 11.51 125.2 11.51 121.75 9.68 121.75"/><polygon class="cls-2" points="31.87 123.36 15.19 123.36 15.19 121.52 15.19 119.68 15.19 118.08 13.35 118.08 13.35 119.68 13.35 121.52 13.35 125.2 33.72 125.2 31.87 123.36"/><polygon class="cls-2" points="116 123.36 99.25 123.36 97.56 125.2 117.84 125.2 117.84 121.75 116 121.75 116 123.36"/><polygon class="cls-2" points="116 119.68 114.17 119.68 114.17 117.84 115.78 117.84 115.78 116.01 112.33 116.01 112.33 121.52 116 121.52 117.84 121.52 119.45 121.52 119.45 119.68 117.84 119.68 116 119.68"/><polygon class="cls-2" points="116 116.01 116 117.84 116 119.45 117.84 119.45 117.84 117.84 117.84 116.01 117.84 114.17 119.68 114.17 119.68 115.78 121.52 115.78 121.52 112.33 116 112.33 116 116.01"/><polygon class="cls-2" points="121.75 121.52 123.36 121.52 123.36 123.36 121.52 123.36 121.52 121.52 121.52 119.68 121.52 118.08 119.68 118.08 119.68 119.68 119.68 121.52 119.68 125.2 125.19 125.2 125.19 119.68 121.75 119.68 121.75 121.52"/><polygon class="cls-2" points="123.36 99.33 123.36 116.01 121.52 116.01 119.68 116.01 118.07 116.01 118.07 117.84 119.68 117.84 121.52 117.84 125.19 117.84 125.19 97.48 123.36 99.33"/><polygon class="cls-2" points="123.37 15.21 123.37 31.96 125.21 33.66 125.21 13.38 121.76 13.38 121.76 15.21 123.37 15.21"/><polygon class="cls-2" points="119.69 15.21 119.69 17.05 117.86 17.05 117.86 15.44 116.02 15.44 116.02 18.89 121.53 18.89 121.53 15.21 121.53 13.38 121.53 11.77 119.69 11.77 119.69 13.38 119.69 15.21"/><polygon class="cls-2" points="116.02 15.21 117.86 15.21 119.47 15.21 119.47 13.38 117.86 13.38 116.02 13.38 114.18 13.38 114.18 11.54 115.79 11.54 115.79 9.7 112.34 9.7 112.34 15.21 116.02 15.21"/><polygon class="cls-2" points="121.53 9.47 121.53 7.86 123.37 7.86 123.37 9.7 121.53 9.7 119.69 9.7 118.08 9.7 118.08 11.54 119.69 11.54 121.53 11.54 125.21 11.54 125.21 6.02 119.69 6.02 119.69 9.47 121.53 9.47"/><polygon class="cls-2" points="99.34 7.86 116.02 7.86 116.02 9.7 116.02 11.54 116.02 13.15 117.86 13.15 117.86 11.54 117.86 9.7 117.86 6.02 97.49 6.02 99.34 7.86"/><polygon class="cls-2" points="15.2 7.85 31.95 7.85 33.64 6.01 13.36 6.01 13.36 9.46 15.2 9.46 15.2 7.85"/><polygon class="cls-2" points="15.2 11.53 17.04 11.53 17.04 13.36 15.43 13.36 15.43 15.2 18.88 15.2 18.88 9.69 15.2 9.69 13.36 9.69 11.75 9.69 11.75 11.53 13.36 11.53 15.2 11.53"/><polygon class="cls-2" points="15.2 15.2 15.2 13.36 15.2 11.75 13.36 11.75 13.36 13.36 13.36 15.2 13.36 17.04 11.53 17.04 11.53 15.43 9.69 15.43 9.69 18.88 15.2 18.88 15.2 15.2"/><polygon class="cls-2" points="9.46 9.69 7.85 9.69 7.85 7.85 9.69 7.85 9.69 9.69 9.69 11.53 9.69 13.13 11.53 13.13 11.53 11.53 11.53 9.69 11.53 6.01 6.01 6.01 6.01 11.53 9.46 11.53 9.46 9.69"/><polygon class="cls-2" points="7.85 31.88 7.85 15.2 9.69 15.2 11.53 15.2 13.13 15.2 13.13 13.36 11.53 13.36 9.69 13.36 6.01 13.36 6.01 33.73 7.85 31.88"/></svg>