<svg id="Capa_1" data-name="Capa 1" xmlns="http://www.w3.org/2000/svg" viewBox="0 0 96.15 96.14"><defs><style>.cls-1{fill:#004d00;}.cls-2{fill:#ffb000;fill-rule:evenodd;}</style></defs><title>web the dubliner</title><rect class="cls-1" width="96.15" height="96.14"/><path class="cls-2" d="M79.15,29.36a2,2,0,0,0-.5,0,3,3,0,0,1-.42,0l-.88,0a4,4,0,0,1-.75-.11l.05-.17c-.07-.07-.09-.06-.11-.05a1.83,1.83,0,0,1-.24.19l-.26.2-.12.09.16.06.27,0h.7a2.73,2.73,0,0,0-.48.27,1,1,0,0,0-.3.37,1.52,1.52,0,0,0-.1.56,1.26,1.26,0,0,0,.13.5,1.13,1.13,0,0,0,.55.52,1.81,1.81,0,0,0,.72.13,2.36,2.36,0,0,0,.35-.05c.15,0,.32-.08.49-.14a1.9,1.9,0,0,0,.45-.19c.13-.07.19-.14.2-.21a.8.8,0,0,0-.26,0,.73.73,0,0,1-.22-.09l-.13.15a.73.73,0,0,1-.16.21.51.51,0,0,1-.34.11,1.22,1.22,0,0,1-.56-.14,1.28,1.28,0,0,1-.42-.38.9.9,0,0,1-.17-.52,1,1,0,0,1,.28-.82,1.24,1.24,0,0,1,.87-.23h.26a1.15,1.15,0,0,1,.28.06.18.18,0,0,1,.13.16l0,.16c.06.06.08.05.1,0l.22-.31Zm-3.36,2.4a.44.44,0,0,1-.21-.24,1,1,0,0,1,0-.35v-.75a1.34,1.34,0,0,0,0-.35.73.73,0,0,0-.22-.34,2.24,2.24,0,0,0-.57-.37l-.11-.05a2,2,0,0,0-.51-.08h-.53a4.54,4.54,0,0,0-.75.07.89.89,0,0,0,0,.26l0,.27v.57c0,.23,0,.47,0,.7a5.69,5.69,0,0,1-.07.71,1,1,0,0,0,.35,0h.27a.39.39,0,0,1,.15,0,.3.3,0,0,0,.13,0c-.07-.17-.15-.27-.2-.39a.77.77,0,0,1-.08-.37V29.42a4.8,4.8,0,0,1,.48.08,2.46,2.46,0,0,1,.48.16,1.07,1.07,0,0,1,.38.26.5.5,0,0,1,.15.37v.27l0,.32v.27l0,.33v.32a1.35,1.35,0,0,0,.35,0h.31l.23,0Zm-4-1.17a3.59,3.59,0,0,1,0,.47.86.86,0,0,1-.14.38.44.44,0,0,1-.34.16.89.89,0,0,1-.48-.16,1.14,1.14,0,0,1-.3-.39,1.4,1.4,0,0,1-.11-.49,1.79,1.79,0,0,1,.07-.51,1,1,0,0,1,.23-.44.6.6,0,0,1,.46-.2.67.67,0,0,1,.49.17.73.73,0,0,1,.14.5v.51Zm.79-1.32c-.12,0-.15,0-.19,0l-.1,0-.16.08-.18-.07a1,1,0,0,0-.29-.08h-.3a1.9,1.9,0,0,0-.85.17,1.3,1.3,0,0,0-.57.49,1.44,1.44,0,0,0-.21.8,1.16,1.16,0,0,0,.29.81,1.12,1.12,0,0,0,.85.32,2,2,0,0,0,.43,0,1.56,1.56,0,0,0,.39-.15l.06.11c0,.11,0,.11.08.11l.22,0h.49a1.51,1.51,0,0,1-.15-.28,2.35,2.35,0,0,1-.06-.42c0-.16,0-.31,0-.45v-.76l0-.24a1,1,0,0,1,0-.2l.14-.09Zm-3.89.9a.63.63,0,0,1-.15.44.77.77,0,0,1-.37.22,1.63,1.63,0,0,1-.5.07h-.09a.38.38,0,0,1,0-.1v-.63c0-.11,0-.22,0-.34a.68.68,0,0,1,.11-.29.28.28,0,0,1,.25-.12.67.67,0,0,1,.54.22A.77.77,0,0,1,68.65,30.17Zm1.75,2-.61-.26c-.22-.11-.43-.22-.62-.34a3.51,3.51,0,0,1-.42-.27l-.25-.19a1.57,1.57,0,0,0-.29-.16.39.39,0,0,1,.17,0l.16,0a3.34,3.34,0,0,0,.38-.17.91.91,0,0,0,.3-.25.82.82,0,0,0,.11-.44.59.59,0,0,0-.15-.4.88.88,0,0,0-.36-.26,1.12,1.12,0,0,0-.44-.09,2.23,2.23,0,0,0-.47,0l-.4.11-.38.1a2.14,2.14,0,0,1-.48.05,1.6,1.6,0,0,0,.21.3.41.41,0,0,1,.1.22,1,1,0,0,1,0,.32v.68l0,.29,0,.3,0,.13.2.06.21,0,.12,0,.14,0a.74.74,0,0,0,0-.26,1.29,1.29,0,0,1,0-.28v-.16l.53.23c.21.13.42.26.65.38s.44.24.64.33a1.31,1.31,0,0,0,.5.13h.38l.1,0Zm-4-.4a.19.19,0,0,1-.17-.13.51.51,0,0,1,0-.22c0-.18,0-.35,0-.52l0-.51,0-.52c0-.17,0-.35,0-.52a.38.38,0,0,0-.2,0h-.76v.14a1.45,1.45,0,0,1,.22.22.36.36,0,0,1,.08.25v.57a2.14,2.14,0,0,1,0,.52.75.75,0,0,1-.24.4.84.84,0,0,1-.55.16,1,1,0,0,1-.68-.28.91.91,0,0,1-.28-.66,1.83,1.83,0,0,1,.06-.51.89.89,0,0,1,.2-.37,2.91,2.91,0,0,1,.39-.35,1.39,1.39,0,0,0-.54-.08h-.33l-.32,0c-.08.08-.07.1,0,.11a.64.64,0,0,1,.22.13.28.28,0,0,1,.08.2.77.77,0,0,1,0,.25l-.08.26a1.7,1.7,0,0,0-.12.34,1.12,1.12,0,0,0-.06.35,1,1,0,0,0,.27.69,1,1,0,0,0,.71.28,2,2,0,0,0,.7-.14,3.32,3.32,0,0,0,.66-.3v.38l.2.05.13,0,.12,0h.35Zm-4.26-1.14a3.59,3.59,0,0,1,0,.47.87.87,0,0,1-.15.38.41.41,0,0,1-.33.16.84.84,0,0,1-.48-.16,1.14,1.14,0,0,1-.3-.39,1.21,1.21,0,0,1-.11-.49,2.22,2.22,0,0,1,.06-.51,1.09,1.09,0,0,1,.23-.44.64.64,0,0,1,.47-.2.69.69,0,0,1,.49.17.78.78,0,0,1,.14.5v.51Zm.79-1.32c-.12,0-.16,0-.19,0l-.11,0-.16.08-.17-.07a1,1,0,0,0-.29-.08h-.31a1.86,1.86,0,0,0-.84.17,1.2,1.2,0,0,0-.57.49,1.44,1.44,0,0,0-.21.8,1.16,1.16,0,0,0,.29.81,1.1,1.1,0,0,0,.85.32,1.87,1.87,0,0,0,.42,0,1.49,1.49,0,0,0,.4-.15l.05.11c0,.11,0,.11.08.11l.22,0h.5a1.08,1.08,0,0,1-.15-.28,1.67,1.67,0,0,1-.07-.42c0-.16,0-.31,0-.45v-.76l0-.24a.59.59,0,0,1,.05-.2l.13-.09Zm-3.12.09a2,2,0,0,0-.5,0,3,3,0,0,1-.42,0l-.88,0a4.21,4.21,0,0,1-.76-.11l.06-.17c-.07-.07-.09-.06-.11-.05a1.83,1.83,0,0,1-.24.19l-.26.2-.13.09.17.06.27,0h.7a2.16,2.16,0,0,0-.48.27,1,1,0,0,0-.3.37,1.34,1.34,0,0,0-.1.56.78.78,0,0,0,0,.26,2.25,2.25,0,0,0,.08.24,1.19,1.19,0,0,0,.56.52,1.81,1.81,0,0,0,.72.13,2.11,2.11,0,0,0,.34-.05c.16,0,.33-.08.5-.14a1.9,1.9,0,0,0,.45-.19c.13-.07.19-.14.2-.21a.85.85,0,0,0-.27,0,.6.6,0,0,1-.21-.09l-.14.15a.59.59,0,0,1-.16.21.48.48,0,0,1-.34.11,1.21,1.21,0,0,1-.55-.14,1.28,1.28,0,0,1-.42-.38.9.9,0,0,1-.17-.52,1,1,0,0,1,.27-.82,1.27,1.27,0,0,1,.87-.23h.27a1.15,1.15,0,0,1,.28.06.18.18,0,0,1,.13.16l0,.16c.07.06.09.05.11,0l.21-.31Zm-3.53,1.72a.39.39,0,0,0-.17-.32,1.8,1.8,0,0,0-.44-.22l-.52-.19a1.81,1.81,0,0,1-.44-.23.46.46,0,0,1-.19-.34.41.41,0,0,1,0-.23.49.49,0,0,1,.16-.1l.2,0a.68.68,0,0,1,.45.18.45.45,0,0,1,.15.38c.06.06.08.05.11,0a.82.82,0,0,0,0-.17,1.15,1.15,0,0,1,.42-.2.35.35,0,0,0-.22-.27,1.45,1.45,0,0,0-.35-.12l-.33,0a2,2,0,0,0-.41,0,2.18,2.18,0,0,0-.44.11,1.16,1.16,0,0,0-.36.22.56.56,0,0,0,0,.73,1,1,0,0,0,.35.22,3.26,3.26,0,0,0,.44.15,3.93,3.93,0,0,1,.41.14,1,1,0,0,1,.31.19.4.4,0,0,1,.13.31.31.31,0,0,1-.14.28.67.67,0,0,1-.33.07.89.89,0,0,1-.3-.06.87.87,0,0,1-.3-.17.38.38,0,0,1-.14-.26c0-.08,0-.09,0-.1l-.29.1a1.44,1.44,0,0,1-.31.05.36.36,0,0,0,.1.4.91.91,0,0,0,.35.19,1.16,1.16,0,0,0,.4.07h.32a2.17,2.17,0,0,0,.41-.05,1.69,1.69,0,0,0,.43-.15,1,1,0,0,0,.34-.25.52.52,0,0,0,.14-.36Zm-3.73-1.17-.64,0h-.54a.49.49,0,0,1,.14-.25.78.78,0,0,1,.26-.17.58.58,0,0,1,.28-.07.65.65,0,0,1,.34.1.38.38,0,0,1,.16.31Zm1.17.16c0-.09,0-.1-.08-.11l-.27,0h-.12a1,1,0,0,0-.45-.5,1.44,1.44,0,0,0-.69-.14,1.33,1.33,0,0,0-1.46,1.45,1.08,1.08,0,0,0,.19.64,1.13,1.13,0,0,0,.49.4,1.94,1.94,0,0,0,.7.13,2.19,2.19,0,0,0,1.55-.65.82.82,0,0,0-.32-.1.7.7,0,0,1-.23-.06c-.11.18-.16.31-.24.41a.49.49,0,0,1-.37.16,1.25,1.25,0,0,1-.62-.17,1.21,1.21,0,0,1-.4-.44,1.25,1.25,0,0,1-.14-.59.91.91,0,0,1,0-.27.12.12,0,0,1,.1-.09.66.66,0,0,1,.21,0h2Zm-4.12.1a.63.63,0,0,1-.15.44.77.77,0,0,1-.37.22,1.63,1.63,0,0,1-.5.07h-.1v-.73a2,2,0,0,1,0-.34.68.68,0,0,1,.11-.29.28.28,0,0,1,.25-.12.67.67,0,0,1,.54.22A.77.77,0,0,1,49.57,30.17Zm1.75,2-.61-.26c-.22-.11-.43-.22-.62-.34s-.34-.21-.43-.27l-.24-.19a1.57,1.57,0,0,0-.29-.16.39.39,0,0,1,.17,0l.16,0,.38-.17a.91.91,0,0,0,.3-.25.82.82,0,0,0,.11-.44.59.59,0,0,0-.15-.4,1,1,0,0,0-.36-.26,1.15,1.15,0,0,0-.44-.09,2.23,2.23,0,0,0-.47,0l-.4.11-.38.1a2.21,2.21,0,0,1-.48.05,1.24,1.24,0,0,0,.21.3.5.5,0,0,1,.1.22,1.47,1.47,0,0,1,0,.32v.68l0,.29,0,.3,0,.13.2.06.21,0,.12,0,.14,0a.74.74,0,0,0,0-.26,2.46,2.46,0,0,1,0-.28v-.16l.54.23c.21.13.42.26.65.38a6.55,6.55,0,0,0,.64.33,1.27,1.27,0,0,0,.5.13h.38l.1,0Zm-8.33-2c.16,0,.26,0,.41,0s.74.69.66.88a.78.78,0,0,1-1.06.43.8.8,0,0,1-.56-.75A1.23,1.23,0,0,1,43,29.46c.83-.11,1,.24,1.11.58A1.3,1.3,0,0,0,43,30.09Zm1.18,0c.13,0,.51-.17.42-.44a.7.7,0,0,0-.63-.45,1.75,1.75,0,0,0-1.24.23,1.31,1.31,0,0,0-.81,1.14,2.83,2.83,0,0,1,0,.3.5.5,0,0,0,.13.34c.5.68.88.49,1.52.29.2-.09.43-.23.63-.33.17.17.42.6.71.65A2.43,2.43,0,0,0,46,31.47l-.68.1c-.1,0-.55-.49-.55-.49l-.14-.36.45-.44c-.17.07-.25.18-.39.22s-.17,0-.26,0S44.16,30.09,44.17,30.12Zm-5.56.56a1.52,1.52,0,0,1-.06.42.77.77,0,0,1-.19.37.5.5,0,0,1-.39.16.7.7,0,0,1-.52-.23,1.42,1.42,0,0,1-.34-.52,1.54,1.54,0,0,1-.12-.57,1,1,0,0,1,.2-.6.76.76,0,0,1,.59-.26.68.68,0,0,1,.49.22,1.24,1.24,0,0,1,.26.48A2.13,2.13,0,0,1,38.61,30.68Zm.71-.14a2.33,2.33,0,0,0,0-.29,1.05,1.05,0,0,0-.06-.24,2.08,2.08,0,0,0-.13-.26.8.8,0,0,0-.38-.37,1.07,1.07,0,0,0-.52-.14,2.45,2.45,0,0,0-.48,0,1.7,1.7,0,0,0-.45.15l-.13.07a1.19,1.19,0,0,1,.08-.22l.11-.25a3.52,3.52,0,0,0,.18-.4,1,1,0,0,0,.08-.35l-.19-.05-.12,0h-.56v.16l.12.13a.47.47,0,0,1,.06.15,2,2,0,0,1-.12.55l-.22.62a2.05,2.05,0,0,0-.11.64v.27l0,.13a.85.85,0,0,0,0,.18,1.75,1.75,0,0,0,.15.31.81.81,0,0,0,.25.27,1.08,1.08,0,0,0,.42.16,1.7,1.7,0,0,0,.38,0,1.79,1.79,0,0,0,.76-.16,1.47,1.47,0,0,0,.58-.46A1.15,1.15,0,0,0,39.32,30.54ZM36.2,31.73A.19.19,0,0,1,36,31.6a.51.51,0,0,1,0-.22c0-.18,0-.35,0-.52l.05-.51,0-.52c0-.17,0-.35,0-.52a.38.38,0,0,0-.2,0h-.76v.14a1.45,1.45,0,0,1,.22.22.36.36,0,0,1,.08.25v.57a2.14,2.14,0,0,1-.05.52.75.75,0,0,1-.24.4.84.84,0,0,1-.55.16,1,1,0,0,1-.68-.28.91.91,0,0,1-.28-.66,1.83,1.83,0,0,1,.06-.51.89.89,0,0,1,.2-.37,2.91,2.91,0,0,1,.39-.35,1.39,1.39,0,0,0-.54-.08h-.33l-.32,0c-.08.08-.07.1,0,.11a.64.64,0,0,1,.22.13.28.28,0,0,1,.08.2.77.77,0,0,1,0,.25l-.08.26a1.7,1.7,0,0,0-.12.34,1.12,1.12,0,0,0-.06.35,1,1,0,0,0,.27.69,1,1,0,0,0,.71.28,2,2,0,0,0,.7-.14,3.32,3.32,0,0,0,.66-.3v.38l.2.05.13,0,.12,0h.35ZM32,30.61A3.34,3.34,0,0,1,32,31a.83.83,0,0,1-.14.4.4.4,0,0,1-.37.18l-.19,0a.56.56,0,0,1-.19-.09.19.19,0,0,1-.08-.15v-.1c-.07-.05-.09,0-.11,0l-.12.15a.86.86,0,0,1-.14.13v-.1c0-.22,0-.43,0-.65s0-.43,0-.64a.93.93,0,0,1,.15-.51.55.55,0,0,1,.48-.22.6.6,0,0,1,.46.22,1.28,1.28,0,0,1,.24.48,2,2,0,0,1,.06.52Zm.68-.22a1.09,1.09,0,0,0-.18-.65,1,1,0,0,0-.49-.38,1.75,1.75,0,0,0-.7-.13,2.1,2.1,0,0,0-.56.08,1.07,1.07,0,0,0-.48.29l-.5,0a1.47,1.47,0,0,1,.25.45,1.58,1.58,0,0,1,.06.48v1c0,.15,0,.3,0,.47s0,.33,0,.46a.6.6,0,0,1-.08.26l.17,0,.28-.11.19-.06,0-.2v-.52a1.12,1.12,0,0,1,0-.2.35.35,0,0,0,.16.16.65.65,0,0,0,.29.05,1.67,1.67,0,0,0,1.17-.4A1.45,1.45,0,0,0,32.71,30.39Zm-4.26,1.38c-.17-.06-.25-.09-.29-.14a.32.32,0,0,1-.05-.23V31l0-.41,0-.38v-.38a.54.54,0,0,0-.24-.49,1.28,1.28,0,0,0-.58-.11,3,3,0,0,0-.68.08,1.43,1.43,0,0,0-.35.11V29l0-.21c0-.13,0-.27,0-.41a1.86,1.86,0,0,0-.5.09,2.1,2.1,0,0,1-.43.08.18.18,0,0,0,.07.15l.13.09a.32.32,0,0,1,.13.21,1.11,1.11,0,0,1,0,.26l0,.72v1.16c0,.16,0,.3,0,.42s0,.18,0,.19a.52.52,0,0,0,.36.07.43.43,0,0,1,.16,0h.17a1.15,1.15,0,0,0,0-.33c0-.12,0-.23,0-.36V29.93a.45.45,0,0,1,.18-.38.68.68,0,0,1,.42-.13.55.55,0,0,1,.41.14.75.75,0,0,1,.17.36,3.15,3.15,0,0,1,0,.44v.71l0,.37v.35l.25.05.2,0h.46Zm-3.15-.69a.37.37,0,0,0-.18-.32,1.72,1.72,0,0,0-.43-.22l-.52-.19a1.89,1.89,0,0,1-.45-.23.42.42,0,0,1-.18-.34.34.34,0,0,1,.05-.23.4.4,0,0,1,.16-.1l.2,0a.63.63,0,0,1,.44.18.46.46,0,0,1,.16.38c.06.06.08.05.1,0s.05-.15.06-.17a1.08,1.08,0,0,1,.42-.2.35.35,0,0,0-.22-.27,1.39,1.39,0,0,0-.36-.12l-.32,0a2,2,0,0,0-.41,0,2.46,2.46,0,0,0-.45.11,1.1,1.1,0,0,0-.35.22.59.59,0,0,0-.15.37.53.53,0,0,0,.14.36,1,1,0,0,0,.35.22,2.84,2.84,0,0,0,.44.15l.41.14a1.17,1.17,0,0,1,.31.19.44.44,0,0,1,.13.31.34.34,0,0,1-.14.28.7.7,0,0,1-.33.07,1,1,0,0,1-.31-.06,1.11,1.11,0,0,1-.3-.17.36.36,0,0,1-.13-.26c0-.08,0-.09,0-.1s-.21.08-.3.1a1.34,1.34,0,0,1-.3.05.36.36,0,0,0,.09.4,1,1,0,0,0,.36.19,1.15,1.15,0,0,0,.39.07H24a2.17,2.17,0,0,0,.41-.05,1.69,1.69,0,0,0,.43-.15,1.07,1.07,0,0,0,.34-.25.57.57,0,0,0,.14-.36Zm-2.86.67a.24.24,0,0,1-.09-.16,1.09,1.09,0,0,1,0-.18V31.1c0-.51,0-1,.05-1.51v-.15a1.3,1.3,0,0,1,0-.13l-.31,0-.11,0-.18,0-.21,0-.14,0c-.06.08-.06.09,0,.09l.18.12a1.06,1.06,0,0,1,.15.15v.35c0,.26,0,.51,0,.77v.26a1.29,1.29,0,0,1,0,.25l0,.24,0,.12.16.06h.63Zm.11-2.89-.09-.15-.1-.1c-.09-.1-.1-.11-.11-.11l-.51.18a.78.78,0,0,0,.1.25l.08.16.6-.17Zm-2.14,1.31a.63.63,0,0,1-.15.44.81.81,0,0,1-.37.22,1.63,1.63,0,0,1-.5.07h-.1v-.73a2,2,0,0,1,0-.34.68.68,0,0,1,.11-.29.28.28,0,0,1,.25-.12.67.67,0,0,1,.54.22A.77.77,0,0,1,20.41,30.17Zm1.75,2-.61-.26c-.22-.11-.43-.22-.62-.34s-.34-.21-.43-.27l-.24-.19a1.57,1.57,0,0,0-.29-.16.39.39,0,0,1,.17,0l.16,0,.38-.17a.91.91,0,0,0,.3-.25.82.82,0,0,0,.11-.44.59.59,0,0,0-.15-.4,1,1,0,0,0-.36-.26,1.15,1.15,0,0,0-.44-.09,2.23,2.23,0,0,0-.47,0l-.4.11-.38.1a2.21,2.21,0,0,1-.48.05,1,1,0,0,0,.21.3.5.5,0,0,1,.1.22,1.47,1.47,0,0,1,0,.32v.68l0,.29,0,.3,0,.13.2.06.21,0,.12,0,.14,0a.74.74,0,0,0,0-.26,2.46,2.46,0,0,1,0-.28v-.16l.54.23c.21.13.42.26.65.38a6.55,6.55,0,0,0,.64.33,1.27,1.27,0,0,0,.5.13H22l.1,0Zm-4.09-.38a.21.21,0,0,1-.1-.16,1.09,1.09,0,0,1,0-.18V31.1c0-.51,0-1,.05-1.51v-.15a1.3,1.3,0,0,1,0-.13l-.31,0-.11,0-.18,0-.21,0-.14,0c-.06.08-.05.09,0,.09l.18.12a.54.54,0,0,1,.15.15v.35c0,.26,0,.51,0,.77v.26a1.29,1.29,0,0,1,0,.25l-.05.24,0,.12.17.06h.62Zm.1-2.89a1,1,0,0,0-.09-.15l-.09-.1c-.09-.1-.11-.11-.12-.11l-.51.18a2.06,2.06,0,0,0,.1.25l.08.16.6-.17ZM5.73,84.75V71.85l-1.42-1.3V86.16H7V84.75Zm2.83,0V83.33H10v1.24h1.42V81.91H7.14V87.4H8.56V84.75Zm2.83,0H8.74v1.41h4.07v1.41H11.57V89h2.65V84.75ZM7.14,89.17v1.24H5.73V89H9.8V87.57H4.31v4.25H8.56V89.17Zm17.09,1.24H11.39V86.34H10v5.48H25.66Zm60.52,0H71.85l-1.3,1.42H86.17V89.2H84.75Zm0-2.83H83.33V86.19h1.24V84.77H81.92V89H87.4V87.6H84.75Zm0-2.83v2.66h1.42V83.36h1.41V84.6H89V81.94H84.75ZM89.17,89h1.24v1.41H89V86.37H87.58v5.48h4.25V87.6H89.17Zm1.24-17.09V84.77H86.34v1.42h5.49V70.51Zm0-60.53V24.29l1.42,1.3V10H89.18V11.4Zm-2.83,0v1.41H86.17V11.57H84.76v2.66H89V8.74H87.59V11.4Zm-2.83,0h2.65V10H83.34V8.57h1.24V7.15H81.93V11.4ZM89,7V5.74h1.41V7.15H86.35V8.57h5.49V4.32H87.59V7ZM71.92,5.74H84.76V9.81h1.41V4.32H70.49ZM39.77,76.41h5.54L45,73H40.08Zm.61-3.67h4.31l-.3-6.43h-3.7Zm1.86-7.64h.61v.6h1.23v-.6h.61V66H40.38V65.1H41v.6h1.24Zm-.32-.31v.61h-.61v-.61h-.93a1.76,1.76,0,0,1-.26-1.38c.14-.62.43-.79.6-1.58a3.18,3.18,0,0,0,.09-1.28,1.69,1.69,0,0,1,.57,1,1.56,1.56,0,0,1-.11,1,1.18,1.18,0,0,0,.65-.79c.17-.6-.06-1.18.51-1.84a2,2,0,0,1,1.3-.67,1.47,1.47,0,0,0-.48,1.07,2.86,2.86,0,0,0,.45,1.51,1.92,1.92,0,0,1,.06,1,1,1,0,0,0,.46-.68A2.3,2.3,0,0,0,44,61s1.06.68,1.26,1.37A2.31,2.31,0,0,1,45,64.15a5.27,5.27,0,0,0-.3.64h-.92v.61h-.61v-.61Zm5.06,7h2.14v3.36H47Zm4.13.92a.32.32,0,0,0-.31.3l-.15,2.14H49.43V71.51H46.67v3.67H45.45L45.3,73a.32.32,0,0,0-.3-.3L44.84,69h.62v-.81h.76v.8h1.3v-.8h.76v.8h1.31v-.8h.76V69h.91Zm5.22,3.67H50.8L51.11,73H56Zm-.61-3.67H51.41l.31-6.43h3.7ZM53.87,65.1h-.61v.6H52v-.6h-.62V66h4.31V65.1h-.61v.6H53.87Zm.31-.31v.61h.62v-.61h.92A1.74,1.74,0,0,0,56,63.41c-.14-.62-.44-.79-.61-1.58a3.26,3.26,0,0,1-.08-1.28,1.69,1.69,0,0,0-.57,1,1.56,1.56,0,0,0,.11,1,1.18,1.18,0,0,1-.65-.79c-.17-.6.06-1.18-.51-1.84a2,2,0,0,0-1.3-.67,1.47,1.47,0,0,1,.48,1.07,2.78,2.78,0,0,1-.46,1.51,1.88,1.88,0,0,0,0,1,1,1,0,0,1-.46-.68A2.3,2.3,0,0,1,52.15,61s-1.06.68-1.26,1.37a2.27,2.27,0,0,0,.23,1.77,4,4,0,0,1,.29.64h.93v.61H53v-.61Zm-1.85-7h5.53l-.31-3.37H52.63Zm.61-3.68h4.31l-.31-6.42h-3.7Zm1.85-7.63h.61v.6h1.24v-.6h.61v.9H52.94v-.9h.61v.6h1.24Zm-.31-.32v.61h-.62v-.61h-.92a1.73,1.73,0,0,1-.27-1.38c.14-.61.44-.78.61-1.57A3.23,3.23,0,0,0,53.37,42a1.75,1.75,0,0,1,.56,1,1.56,1.56,0,0,1-.11.95,1.22,1.22,0,0,0,.65-.79c.17-.61-.06-1.19.51-1.84a2,2,0,0,1,1.31-.67,1.43,1.43,0,0,0-.49,1.07,2.9,2.9,0,0,0,.46,1.51,1.88,1.88,0,0,1,.05,1.05,1,1,0,0,0,.46-.68,2.27,2.27,0,0,0-.26-1.14s1.06.67,1.26,1.37a2.31,2.31,0,0,1-.22,1.77,4,4,0,0,0-.3.63h-.93v.61h-.61v-.61Zm5.05,7h2.15v3.36H59.53Zm4.13.91a.35.35,0,0,0-.31.31l-.15,2.14H62V52.92H59.23v3.67H58l-.14-2.14a.35.35,0,0,0-.31-.31l-.16-3.79H58v-.8h.76v.8h1.31v-.8h.76v.8h1.3v-.8h.77v.8h.91Zm5.23,3.68H63.36l.3-3.37h4.92Zm-.61-3.68H64l.3-6.42H68Zm-1.85-7.63h-.62v.6H64.58v-.6H64v.9h4.31v-.9h-.61v.6H66.43Zm.31-.32v.61h.61v-.61h.93a1.75,1.75,0,0,0,.26-1.38c-.14-.61-.43-.78-.6-1.57A3.23,3.23,0,0,1,67.85,42a1.8,1.8,0,0,0-.57,1,1.66,1.66,0,0,0,.11.95,1.22,1.22,0,0,1-.65-.79c-.17-.61.06-1.19-.51-1.84a1.93,1.93,0,0,0-1.3-.67,1.44,1.44,0,0,1,.48,1.07A2.89,2.89,0,0,1,65,43.19a1.92,1.92,0,0,0-.06,1.05,1,1,0,0,1-.45-.68,2.19,2.19,0,0,1,.25-1.14s-1.06.67-1.26,1.37a2.31,2.31,0,0,0,.23,1.77,5.92,5.92,0,0,1,.3.63h.92v.61h.62v-.61ZM17.19,34.77H78.92l-5.73,6.59V69.21L48.08,86.41,23,69.22V41.36Zm3.32,1.44,3.91,4.4,0,27.47L48.08,84.29,71.76,68.08V40.61l3.86-4.4ZM27.3,57.82h5.53l-.31-3.37H27.6Zm.61-3.68h4.31l-.31-6.42h-3.7Zm1.85-7.63h.61v.6h1.24v-.6h.61v.9H27.91v-.9h.61v.6h1.24Zm-.31-.32v.61h-.62v-.61h-.92a1.73,1.73,0,0,1-.27-1.38c.14-.61.44-.78.61-1.57A3.23,3.23,0,0,0,28.34,42a1.75,1.75,0,0,1,.56,1,1.56,1.56,0,0,1-.11.95,1.22,1.22,0,0,0,.65-.79c.17-.61-.06-1.19.51-1.84a2,2,0,0,1,1.31-.67,1.43,1.43,0,0,0-.49,1.07,2.9,2.9,0,0,0,.46,1.51,1.88,1.88,0,0,1,.05,1.05,1,1,0,0,0,.46-.68,2.27,2.27,0,0,0-.26-1.14s1.06.67,1.26,1.37a2.31,2.31,0,0,1-.22,1.77,4,4,0,0,0-.3.63h-.93v.61h-.61v-.61Zm5.05,7h2.15v3.36H34.5Zm4.13.91a.34.34,0,0,0-.31.31l-.15,2.14H37V52.92H34.2v3.67H33l-.14-2.14a.35.35,0,0,0-.31-.31l-.16-3.79H33v-.8h.76v.8h1.31v-.8h.76v.8h1.3v-.8h.77v.8h.91Zm5.23,3.68H38.33l.3-3.37h4.92Zm-.61-3.68H38.94l.3-6.42h3.7ZM41.4,46.51h-.62v.6H39.55v-.6h-.61v.9h4.31v-.9h-.61v.6H41.4Zm.31-.32v.61h.61v-.61h.93a1.75,1.75,0,0,0,.26-1.38c-.14-.61-.43-.78-.6-1.57A3.23,3.23,0,0,1,42.82,42a1.8,1.8,0,0,0-.57,1,1.66,1.66,0,0,0,.11.95,1.22,1.22,0,0,1-.65-.79c-.17-.61.06-1.19-.51-1.84a1.93,1.93,0,0,0-1.3-.67,1.44,1.44,0,0,1,.48,1.07,2.89,2.89,0,0,1-.45,1.51,1.92,1.92,0,0,0-.06,1.05,1,1,0,0,1-.45-.68,2.19,2.19,0,0,1,.25-1.14s-1.06.67-1.26,1.37a2.31,2.31,0,0,0,.23,1.77,5.92,5.92,0,0,1,.3.63h.92v.61h.62v-.61ZM11.4,5.73H24.29L25.6,4.31H10V7H11.4Zm0,2.83h1.41V10H11.58v1.42h2.65V7.14H8.74V8.56H11.4Zm0,2.83V8.73H10V12.8H8.57V11.56H7.15v2.66H11.4ZM7,7.14H5.74V5.73H7.15V9.8H8.57V4.31H4.32V8.56H7ZM5.74,24.23V11.39H9.81V10H4.32V25.65Zm70.59.38-.06,0c-.79.2-.86.83-2.32.83a1.7,1.7,0,0,1-1.63-1.07l-.13-.31c.4,0,.54,0,1.21,0l2.45,0,.92-.41-2.1-.05c.13,0,.15,0,.15,0s0,0,.31-.14a2.05,2.05,0,0,0,1.12-.87C76.79,21.1,75,21,74.06,21a4.5,4.5,0,0,0-1,.29,5.23,5.23,0,0,0-.89.43c-1.65,1.18-1.27,3.63.3,4.12a3.71,3.71,0,0,0,2.15-.29l.46-.19A3.46,3.46,0,0,0,76,25l.17-.16A.54.54,0,0,0,76.27,24.61Zm-4.14-.88a1.49,1.49,0,0,1,0-.56,1.89,1.89,0,0,1,.14-.58c.14-.36.48-1.1.92-1.12A3.25,3.25,0,0,1,75,21.9a.88.88,0,0,1,.23.91c-.22.81-1.1.77-1.9.86C72.75,23.74,72.29,23.69,72.13,23.73Zm-9.27-3.44L63,21l.88-.31a3.58,3.58,0,0,0,0-.83A9.63,9.63,0,0,1,62.86,20.29Zm0,1.12v4.53a3.54,3.54,0,0,1,.74-.31l.13,0,.12-.1V21a.75.75,0,0,0-.28,0c-.19.07-.05,0-.21.12S63.18,21.19,62.85,21.41Zm-4.36-1.76c0,1.33,0,2.64-.06,4,0,.43.08.87.06,1.6l-.06.78c.32,0,.53-.27.79-.33.51-.1,1.66.13,2.09-.12l.66-.44a3.85,3.85,0,0,0-.55.06H59.37l.06-5.91C59.06,19.36,58.86,19.56,58.49,19.65Zm-24.9,5-.06,0c-.79.2-.86.83-2.32.83a1.72,1.72,0,0,1-1.63-1.07l-.13-.31c.4,0,.54,0,1.21,0l2.46,0,.91-.41-2.1-.05c.13,0,.15,0,.15,0s0,0,.32-.14a2,2,0,0,0,1.11-.87c.54-1.45-1.3-1.54-2.19-1.53a4.42,4.42,0,0,0-1,.29,5,5,0,0,0-.9.43c-1.65,1.18-1.27,3.63.3,4.12a3.71,3.71,0,0,0,2.15-.29l.47-.19a3.56,3.56,0,0,0,.9-.43l.17-.16A.44.44,0,0,0,33.53,24.61Zm-4.14-.88a1.32,1.32,0,0,1,0-.56,1.88,1.88,0,0,1,.13-.58c.15-.36.48-1.1.92-1.12a3.25,3.25,0,0,1,1.83.43.86.86,0,0,1,.23.91c-.21.81-1.1.77-1.9.86C30,23.74,29.55,23.69,29.39,23.73Zm22-2.59-.12,3.18c0,.38-.57.61-1.07.87-1.93,1-3-2.33-1.57-3.45l.26-.18a3.53,3.53,0,0,1,.49-.17l.74-.36a23,23,0,0,0-3.35.07l-.79.37h2.65c-.16.22-1.16.47-1.56,1.3A3,3,0,0,0,47,24.59a2.16,2.16,0,0,0,.23.49,1.69,1.69,0,0,0,2,.61c.09,0,.15,0,.26-.07l1.81-.78a6.82,6.82,0,0,0,.06,1.1,7.33,7.33,0,0,0,1.05-.5,27.21,27.21,0,0,1,0-4.69Zm13.42.16c0,.78-.06,1.48-.06,2.27v2.37a8,8,0,0,1,1-.44V23.84c0-.95-.09-1.32,1.21-2.1s2.51.36,2.23,2.23c-.18,1.17-.67,1.2-1.67,1.69a13,13,0,0,0,2.82-.1,2.11,2.11,0,0,1,.34-.16.28.28,0,0,1,.14,0s0,0,.18-.16h-2c.46-.41.87-.26,1.26-1.55.23-.73.16-2.65-1.32-2.64a3.33,3.33,0,0,0-1.43.33l-.27.12c-.17.08-.32.09-.52.19l-1,.46V20.86a.67.67,0,0,0-.23.1A3.73,3.73,0,0,0,64.84,21.3ZM53.19,19.81c0,1.81-.13,3.47-.06,5.3.19.13.27.26.49.4A1.86,1.86,0,0,0,56,25.4a.39.39,0,0,0,.11-.12.51.51,0,0,0,.17,0,2.42,2.42,0,0,0,.59-.35c.8-.71,1.47-2.72,0-3.59a1.73,1.73,0,0,0-.61-.26,1.54,1.54,0,0,0-.38,0,1.67,1.67,0,0,0-.55,0,5.93,5.93,0,0,0-1.16.66,17,17,0,0,1,.11-2.47ZM56.72,24c0,.29-.2.85-.53,1a1.44,1.44,0,0,1-1.25,0c-1.1-.55-.86-.33-.87-2.28,0-.66,0-.84.51-1A1.84,1.84,0,0,1,56.72,24Zm20.87-2.77c0,1.66,0,3,0,4.69.16,0,.11-.05.27-.12l.26-.12a1.27,1.27,0,0,0,.52-.26l-.11-1a5.15,5.15,0,0,1,2,.51l1.63.91a6.74,6.74,0,0,0,1.08-.47l-1.11-.65-1.24-.59s2.12-.64,1.9-1.73A1.67,1.67,0,0,0,81.6,21.1a3.27,3.27,0,0,0-2.12.27l-.19.09-.76.28v-.88C78.26,20.94,77.86,21.18,77.59,21.25Zm.89,2.59V22.13c0-.14,0-.08.18-.21s.34-.19.49-.28a1.91,1.91,0,0,1,1.17-.14,1.69,1.69,0,0,1,.93.51,1.71,1.71,0,0,1,.42.95,1.19,1.19,0,0,1-.53.9,2.51,2.51,0,0,1-1.25.06A8.16,8.16,0,0,0,78.48,23.84Zm-56.54-4c-.06,2-.09,4-.17,6l1.16-.44V22.52a1.78,1.78,0,0,1,2-.91,2.94,2.94,0,0,1,1,.44l.21.19a2,2,0,0,1,.4.75,1.56,1.56,0,0,1-.24,1,4,4,0,0,1-1.29,1.19,4.2,4.2,0,0,0-1.7.62l1.27-.05a13.37,13.37,0,0,0,2.87-.12l.67-.38h-3c.07-.06.8-.36,1-.51s.36-.16.5-.27c.53-.38,1.24-1.28,1-2A2.25,2.25,0,0,0,25.25,21a4.84,4.84,0,0,0-1.17.38l-1.15.44c0-.14,0-2.25,0-2.37Zm14.89-2.43a1.34,1.34,0,0,0,1,1.52,11.85,11.85,0,0,0,2.46,0c-.58.82-.92.39-1.58,2l0,1.18a1.45,1.45,0,0,0-1.41.14,1.8,1.8,0,0,1-.22.2c0,.05-.06.12-.25.48l.22.18a1.31,1.31,0,0,1,.61-.45,1,1,0,0,1,.61,1.6,3.75,3.75,0,0,1-1.13,1.08l-.21.15.18.21a7.61,7.61,0,0,0,2.55-2.14c0-.08.14-.4.18-.53a2.74,2.74,0,0,0,0-1.21c-.07-.45-.14-1.92.36-2.32L41,19c-.06.23,0,.06-.12.21l-.23.76c-.22,1.11.29,2.66-.35,3.74A4.89,4.89,0,0,1,38.91,25l-1.68,1,.17.22a4,4,0,0,1,.66-.33,4.85,4.85,0,0,1,1.49-.5c.28,0,.61-.1.88-.11a18.82,18.82,0,0,1,1.88.11l1.66.33.75-.6.9-.56v-1l-.12-1.87a6.31,6.31,0,0,0,0-1,4.16,4.16,0,0,0-.88-2.05,3.23,3.23,0,0,0-2.32-.83c-.35,0-1.71,0-2,.08a9.21,9.21,0,0,1-2.87-.1.49.49,0,0,1-.26-.23c0-.08,0-.14-.12-.17S36.83,17.44,36.83,17.44ZM42,19a2.31,2.31,0,0,1,1.78.59,3.29,3.29,0,0,1,.47,1.61c-.9.41-1.35.64-2.25,0Zm-.67,0h.33v5.13c-.06.2-.45.11-.71.12l-.83.11C41.82,21.83,40.21,21.26,41.37,19ZM42,23c1.25-.63,1.19-.38,2.37-.06l0-1.43c-1.39.39-1.3.51-2.32,0Zm0,.22c.92-.35,1.33-.63,2.31.06l.12.11v1.32a7.54,7.54,0,0,1-1.16-.28L42,24.23Zm-26,1.12A5.13,5.13,0,0,1,15,23a3,3,0,0,1-.15-1.26A3.86,3.86,0,0,1,15,20.65a3,3,0,0,1,.43-.93,7,7,0,0,1,1-.95l.16,0v4.42a2.13,2.13,0,0,1,0,.37.88.88,0,0,1-.12.32A2.28,2.28,0,0,1,16.05,24.3Zm.29.19a7.83,7.83,0,0,0,.82-.78,2.81,2.81,0,0,0,.39-.58,2.13,2.13,0,0,0,.24-.68,4.21,4.21,0,0,0,.07-.83V19l.89.16v5.62c-.05,0-.11.11-.16.11h-.16a3.69,3.69,0,0,1-1.12-.05A2.78,2.78,0,0,1,16.34,24.49ZM13.06,20h.12a3.32,3.32,0,0,1,1-1,2.34,2.34,0,0,1,1.18-.28h.34l.37.05a5.71,5.71,0,0,0-1.72,1.66,3.57,3.57,0,0,0-.58,1.93A3.25,3.25,0,0,0,14,23.76a3.18,3.18,0,0,0,.78,1.08,4.09,4.09,0,0,0,1.35.8,4.84,4.84,0,0,0,1.65.27,4.16,4.16,0,0,0,1.66-.32c.49-.22.58-.53.9-.95a4,4,0,0,0,.73-1.53L21,23.06c-.27.43-.27.78-.63,1.06a3.41,3.41,0,0,1-1.29.65v-5.6h.35a1.38,1.38,0,0,0,1.15-.35,1.83,1.83,0,0,0,.59-1.31l-.11,0a1.56,1.56,0,0,1-.28.37.78.78,0,0,1-.33.21c-.13.05,0,.07-.12.07a4.22,4.22,0,0,1-.71,0c-.24,0-.49-.1-.75-.16L18,17.82l-.9-.15a5.52,5.52,0,0,0-.77-.06,3.63,3.63,0,0,0-2.2.56A3,3,0,0,0,13.06,20Z"/></svg>